<svg xmlns="http://www.w3.org/2000/svg" xmlns:xlink="http://www.w3.org/1999/xlink" width="39" height="39" viewBox="0 0 39 39">
  <defs>
    <clipPath id="clip-path">
      <circle id="Ellipse_6" data-name="Ellipse 6" cx="19.5" cy="19.5" r="19.5" transform="translate(1416 16)" fill="#ad4eec" stroke="#707070" stroke-width="1"/>
    </clipPath>
  </defs>
  <g id="Avatar" transform="translate(-1416 -16)">
    <path id="Path_261" data-name="Path 261" d="M19.5,0A19.5,19.5,0,1,1,0,19.5,19.5,19.5,0,0,1,19.5,0Z" transform="translate(1416 16)" fill="#fdd600"/>
    <g id="Mask_Group_2" data-name="Mask Group 2" clip-path="url(#clip-path)">
      <path id="Union_9" data-name="Union 9" d="M-6606.073,70.888a1,1,0,0,1-1,1,1,1,0,0,1-1-1,1,1,0,0,1-1,1,1,1,0,0,1-1-1v-.881a13.353,13.353,0,0,1-1.668.1h-.126a13.916,13.916,0,0,1-2.193-.2v.976a1,1,0,0,1-1,1,1,1,0,0,1-1-1,1,1,0,0,1-1,1,1,1,0,0,1-1-1,1,1,0,0,1-1,1,1,1,0,0,1-1-1V67.9a.981.981,0,0,1,.058-.331,20.953,20.953,0,0,1-4.071-3.431l.856,3.876a23.378,23.378,0,0,1-5.953-5.788c-2.171-3.217-3.8-7.493-.806-10.5a17.612,17.612,0,0,1-.133-2.134,12.962,12.962,0,0,1,5.592-11.08,17.3,17.3,0,0,1-2.872-1.59c-2.347-1.657-3.372-4.155-3.179-4.767a.188.188,0,0,1,.186-.152.739.739,0,0,1,.41.2c1.326,1.07,10.425,2.535,17.7,2.85h.385c.542,0,1.081.013,1.6.042,7.252-.052,16.2-2.054,17.757-2.892a1.378,1.378,0,0,1,.544-.2.132.132,0,0,1,.132.068c.16.354-1.123,2.121-3.514,4.847a8.9,8.9,0,0,1-3.141,2.148,12.67,12.67,0,0,1,3.557,4.443,14.035,14.035,0,0,1,1.3,6.082,17.761,17.761,0,0,1-.15,2.277c2.806,3,1.2,7.189-.944,10.354a23.358,23.358,0,0,1-5.952,5.789l.787-3.56a20.343,20.343,0,0,1-4.188,3.413v3.024a1,1,0,0,1-1,1,1,1,0,0,1-.707-.291A1,1,0,0,1-6606.073,70.888Zm-8.353-15.524a.982.982,0,0,0-.115.916l1.554,4.142a.974.974,0,0,0,.933.645.978.978,0,0,0,.936-.645l1.552-4.142a.985.985,0,0,0-.115-.918.981.981,0,0,0-.818-.429h-3.105a.981.981,0,0,0-.825.432Zm4.57-6.354a6.481,6.481,0,0,0,6.481,6.481,6.487,6.487,0,0,0,6.482-6.481,6.489,6.489,0,0,0-6.481-6.481,6.487,6.487,0,0,0-6.487,6.481Zm-16.951,0a6.488,6.488,0,0,0,6.481,6.481,6.486,6.486,0,0,0,6.481-6.481,6.487,6.487,0,0,0-6.481-6.481,6.49,6.49,0,0,0-6.487,6.481Zm18.945,0a4.492,4.492,0,0,1,4.487-4.487,4.493,4.493,0,0,1,4.487,4.487,4.435,4.435,0,0,1-.2,1.337,2.482,2.482,0,0,0-2.493-2.393,2.493,2.493,0,0,0-2.493,2.493,2.493,2.493,0,0,0,2.493,2.493,2.435,2.435,0,0,0,.445-.04,4.474,4.474,0,0,1-2.239.6,4.491,4.491,0,0,1-4.494-4.488Zm-16.951,0a4.492,4.492,0,0,1,4.487-4.487,4.491,4.491,0,0,1,4.486,4.487,4.5,4.5,0,0,1-.2,1.337,2.493,2.493,0,0,0-2.493-2.393,2.493,2.493,0,0,0-2.493,2.493,2.493,2.493,0,0,0,2.493,2.493,2.419,2.419,0,0,0,.448-.04,4.469,4.469,0,0,1-2.241.6,4.489,4.489,0,0,1-3.179-1.312,4.487,4.487,0,0,1-1.316-3.176Z" transform="translate(8058 -9.733)" fill="#f70"/>
    </g>
  </g>
</svg>
