<svg xmlns="http://www.w3.org/2000/svg" xmlns:xlink="http://www.w3.org/1999/xlink" width="30" height="30" viewBox="0 0 30 30">
  <defs>
    <clipPath id="clip-path">
      <rect id="Rectangle_1233" data-name="Rectangle 1233" width="30" height="30" transform="translate(16 15)" fill="#fff" stroke="#707070" stroke-width="1"/>
    </clipPath>
  </defs>
  <g id="Award" transform="translate(-16 -15)" clip-path="url(#clip-path)">
    <path id="Icon_awesome-award" data-name="Icon awesome-award" d="M5.69,21.247c-.509-.509-.244-.366-1.472-.694a4.227,4.227,0,0,1-1.49-.78L.07,26.29a.938.938,0,0,0,.9,1.291l3.087-.118,2.123,2.243a.937.937,0,0,0,1.549-.291l3.05-7.478a4.2,4.2,0,0,1-5.093-.691ZM22.429,26.29l-2.658-6.518a4.218,4.218,0,0,1-1.49.78c-1.235.33-.964.186-1.472.694a4.206,4.206,0,0,1-5.093.691l3.05,7.478a.937.937,0,0,0,1.549.291l2.124-2.243,3.087.118a.938.938,0,0,0,.9-1.291ZM15.41,19.921c.9-.911,1-.833,2.273-1.18a2.381,2.381,0,0,0,1.668-1.7,3.765,3.765,0,0,1,1.52-2.681,2.431,2.431,0,0,0,.611-2.319,3.81,3.81,0,0,1,0-3.1,2.431,2.431,0,0,0-.611-2.319,3.767,3.767,0,0,1-1.52-2.681,2.381,2.381,0,0,0-1.668-1.7A3.673,3.673,0,0,1,15.049.7,2.331,2.331,0,0,0,12.77.081a3.626,3.626,0,0,1-3.041,0A2.33,2.33,0,0,0,7.451.7,3.67,3.67,0,0,1,4.817,2.25a2.381,2.381,0,0,0-1.668,1.7,3.765,3.765,0,0,1-1.52,2.681,2.429,2.429,0,0,0-.611,2.319,3.809,3.809,0,0,1,0,3.095,2.432,2.432,0,0,0,.611,2.32,3.765,3.765,0,0,1,1.52,2.681,2.381,2.381,0,0,0,1.668,1.7c1.311.357,1.409.3,2.272,1.18A2.329,2.329,0,0,0,10,20.262a2.325,2.325,0,0,1,2.492,0A2.328,2.328,0,0,0,15.41,19.921ZM5.722,10.31a5.528,5.528,0,1,1,5.528,5.626A5.578,5.578,0,0,1,5.722,10.31Z" transform="translate(19.75 15)" fill="#f70"/>
  </g>
</svg>
