<svg xmlns="http://www.w3.org/2000/svg" width="30.001" height="30" viewBox="0 0 30.001 30">
  <path id="Brush" d="M9.786,18.125a5.93,5.93,0,0,0-5.695,4.236.894.894,0,0,1-.855.585c-.651,0-2.664-1.621-3.237-2.013C0,25.759,2.222,30,7.5,30c4.445,0,7.5-2.565,7.5-7.042a5.077,5.077,0,0,0-.057-.535l-5.157-4.3ZM26.829,0a3.578,3.578,0,0,0-2.356.964C12.5,11.663,11.25,11.914,11.25,15.064a5.425,5.425,0,0,0,.512,2.268L15.5,20.447a5.392,5.392,0,0,0,1.312.178c3.639,0,5.749-2.664,12.373-15.027A6.029,6.029,0,0,0,30,2.9,3.051,3.051,0,0,0,26.829,0Z" transform="translate(0.001)" fill="#4ea2ec"/>
</svg>
