<svg xmlns="http://www.w3.org/2000/svg" width="30" height="30" viewBox="0 0 30 30">
  <path id="Pencil" d="M29.175,8.327l-2.7,2.7a.7.7,0,0,1-1,0l-6.5-6.5a.7.7,0,0,1,0-1l2.7-2.7a2.819,2.819,0,0,1,3.979,0l3.522,3.522A2.808,2.808,0,0,1,29.175,8.327ZM16.653,5.849,1.266,21.236.024,28.356a1.408,1.408,0,0,0,1.629,1.629l7.119-1.248L24.159,13.349a.7.7,0,0,0,0-1l-6.5-6.5a.711.711,0,0,0-1,0ZM7.272,19.918a.817.817,0,0,1,0-1.16L16.3,9.734a.82.82,0,0,1,1.16,1.16L8.432,19.918a.817.817,0,0,1-1.16,0ZM5.157,24.846H7.969v2.127l-3.779.662L2.368,25.812l.662-3.779H5.157Z" transform="translate(-0.002 -0.005)" fill="#ad4eec"/>
</svg>
